<?xml version="1.0"?>
<svg xmlns="http://www.w3.org/2000/svg" xmlns:xlink="http://www.w3.org/1999/xlink" version="1.1" id="Capa_1" x="0px" y="0px" viewBox="0 0 512 512" style="enable-background:new 0 0 512 512;" xml:space="preserve" width="512px" height="512px" class=""><g transform="matrix(6.12323e-17 1 -1 6.12323e-17 512 0)"><g>
	<g>
		<path d="M69.957,405.447c4.199,0,7.604-3.405,7.604-7.604V7.604C77.562,3.405,74.158,0,69.958,0c-4.199,0-7.604,3.405-7.604,7.604    v27.333L44.101,53.741V7.604C44.101,3.405,40.696,0,36.497,0c-4.199,0-7.604,3.405-7.604,7.604v496.792    c0,4.199,3.405,7.604,7.604,7.604c4.199,0,7.604-3.405,7.604-7.604v-27.333l18.253-18.804v46.137c0,4.199,3.405,7.604,7.604,7.604    s7.604-3.405,7.604-7.604v-76.135c0-4.199-3.405-7.604-7.604-7.604s-7.604,3.405-7.604,7.604v8.165L44.101,455.23v-78.539    l18.253-18.804v39.956C62.353,402.043,65.758,405.447,69.957,405.447z M44.102,75.574L62.354,56.77v78.539l-18.253,18.804V75.574z     M44.102,175.947l18.253-18.804v78.539l-18.253,18.804V175.947z M44.101,354.858v-78.539l18.253-18.804v78.539L44.101,354.858z" data-original="#000000" class="active-path" data-old_color="#51d38a" fill="#51d38a"/>
	</g>
</g><g>
	<g>
		<path d="M205.14,0c-4.199,0-7.604,3.405-7.604,7.604v59.1h-18.253v-59.1c0-4.199-3.405-7.604-7.604-7.604    s-7.604,3.405-7.604,7.604v66.704c0,4.199,3.405,7.604,7.604,7.604h33.46c4.199,0,7.604-3.405,7.604-7.604V7.604    C212.744,3.405,209.339,0,205.14,0z" data-original="#000000" class="active-path" data-old_color="#51d38a" fill="#51d38a"/>
	</g>
</g><g>
	<g>
		<path d="M205.14,430.088h-33.46c-4.199,0-7.604,3.405-7.604,7.604v66.704c0,4.199,3.405,7.604,7.604,7.604    s7.604-3.405,7.604-7.604v-59.1h18.253v59.1c0,4.199,3.405,7.604,7.604,7.604s7.604-3.405,7.604-7.604v-66.704    C212.744,433.492,209.339,430.088,205.14,430.088z" data-original="#000000" class="active-path" data-old_color="#51d38a" fill="#51d38a"/>
	</g>
</g><g>
	<g>
		<path d="M205.14,104.546h-33.46c-4.199,0-7.604,3.405-7.604,7.604v124.059c0,4.199,3.405,7.604,7.604,7.604h33.46    c4.199,0,7.604-3.405,7.604-7.604V112.15C212.744,107.951,209.339,104.546,205.14,104.546z M197.536,228.604h-18.253v-108.85    h18.253V228.604z" data-original="#000000" class="active-path" data-old_color="#51d38a" fill="#51d38a"/>
	</g>
</g><g>
	<g>
		<path d="M205.14,268.188h-33.46c-4.199,0-7.604,3.405-7.604,7.604v124.059c0,4.199,3.405,7.604,7.604,7.604h33.46    c4.199,0,7.604-3.405,7.604-7.604V275.792C212.744,271.591,209.339,268.188,205.14,268.188z M197.536,392.246h-18.253v-108.85    h18.253V392.246z" data-original="#000000" class="active-path" data-old_color="#51d38a" fill="#51d38a"/>
	</g>
</g><g>
	<g>
		<path d="M340.321,0c-4.199,0-7.604,3.405-7.604,7.604v59.1h-18.253v-59.1c0-4.199-3.405-7.604-7.604-7.604    c-4.199,0-7.604,3.405-7.604,7.604v66.704c0,4.199,3.405,7.604,7.604,7.604h33.461c4.199,0,7.604-3.405,7.604-7.604V7.604    C347.925,3.405,344.52,0,340.321,0z" data-original="#000000" class="active-path" data-old_color="#51d38a" fill="#51d38a"/>
	</g>
</g><g>
	<g>
		<path d="M340.321,430.088H306.86c-4.199,0-7.604,3.405-7.604,7.604v66.704c0,4.199,3.405,7.604,7.604,7.604    c4.199,0,7.604-3.405,7.604-7.604v-59.1h18.253v59.1c0,4.199,3.405,7.604,7.604,7.604c4.199,0,7.604-3.405,7.604-7.604v-66.704    C347.925,433.492,344.52,430.088,340.321,430.088z" data-original="#000000" class="active-path" data-old_color="#51d38a" fill="#51d38a"/>
	</g>
</g><g>
	<g>
		<path d="M340.321,149.954c4.199,0,7.604-3.405,7.604-7.604v-30.2c0-4.199-3.405-7.604-7.604-7.604H306.86    c-4.199,0-7.604,3.405-7.604,7.604v124.059c0,4.199,3.405,7.604,7.604,7.604h33.461c4.199,0,7.604-3.405,7.604-7.604v-63.441    c0-4.199-3.405-7.604-7.604-7.604c-4.199,0-7.604,3.405-7.604,7.604v55.837h-18.253V119.754h18.253v22.596    C332.717,146.55,336.121,149.954,340.321,149.954z" data-original="#000000" class="active-path" data-old_color="#51d38a" fill="#51d38a"/>
	</g>
</g><g>
	<g>
		<path d="M340.321,268.188H306.86c-4.199,0-7.604,3.405-7.604,7.604v124.059c0,4.199,3.405,7.604,7.604,7.604h33.461    c4.199,0,7.604-3.405,7.604-7.604V275.792C347.925,271.591,344.52,268.188,340.321,268.188z M332.717,392.246h-18.253v-108.85    h18.253V392.246z" data-original="#000000" class="active-path" data-old_color="#51d38a" fill="#51d38a"/>
	</g>
</g><g>
	<g>
		<path d="M475.503,0c-4.199,0-7.604,3.405-7.604,7.604v46.137l-18.253-18.804V7.604c0-4.199-3.405-7.604-7.604-7.604    s-7.604,3.405-7.604,7.604v496.792c0,4.199,3.405,7.604,7.604,7.604s7.604-3.405,7.604-7.604v-46.137l18.253,18.804v27.333    c0,4.199,3.405,7.604,7.604,7.604s7.604-3.405,7.604-7.604V7.604C483.107,3.405,479.702,0,475.503,0z M467.898,455.23    l-18.253-18.804v-78.539l18.253,18.804V455.23z M467.898,354.858l-18.253-18.804v-78.539l18.253,18.804V354.858z M467.898,254.485    l-18.253-18.804v-78.539l18.253,18.804V254.485z M467.899,154.113l-18.253-18.804V56.77l18.253,18.804V154.113z" data-original="#000000" class="active-path" data-old_color="#51d38a" fill="#51d38a"/>
	</g>
</g></g> </svg>
