<?xml version="1.0"?>
<svg xmlns="http://www.w3.org/2000/svg" xmlns:xlink="http://www.w3.org/1999/xlink" version="1.1" id="Capa_1" x="0px" y="0px" width="512px" height="512px" viewBox="0 0 31.644 31.644" style="enable-background:new 0 0 31.644 31.644;" xml:space="preserve" class=""><g><g>
	<g>
		<polygon points="7.533,11.303 6.799,11.303 6.799,14.404 9.37,14.404 9.37,11.303 8.594,11.303 8.594,6.99 21.408,11.098     29.561,3.819 16.302,0 5.88,6.12 7.533,6.649   " data-original="#000000" class="active-path" data-old_color="#51d38a" fill="#51d38a"/>
		<path d="M20.174,27.277c0,1.854,1.503,3.356,3.356,3.356h0.155c1.854,0,3.356-1.504,3.356-3.356v-1.703h-6.868V27.277z" data-original="#000000" class="active-path" data-old_color="#51d38a" fill="#51d38a"/>
		<path d="M30.498,18.268c0.799-0.72,1.434-2.723,0.33-3.473c-1.612-1.096-4.178-0.538-6.004-0.605    c-0.384-0.014-0.736-0.089-1.08-0.181c0.897-0.577,1.532-0.983,1.532-0.983V8.64l-3.739,3.304L11.41,8.486v5.672    c0,0,2.057-0.714,4.065-0.021c2.009,0.693,5.403,2.736,5.403,2.736s0.979-1.586,2.146-2.392c1.79,0.5,3.879,0.176,5.678,0.241    c2.429,0.089,2.746,2.312,0.846,3.672c-0.836,0.598-1.951,0.815-2.93,1.067c-1.414,0.362-2.558,0.943-3.033,2.179H23.51    c-0.007,0.043-0.013,0.088-0.019,0.121h-3.317v3.618h6.868v-3.618h-2.955C25.059,19.714,28.919,19.689,30.498,18.268z     M24.108,24.328c0,0.268-0.218,0.488-0.487,0.488h-0.022c-0.269,0-0.487-0.222-0.487-0.488v-1.27c0-0.201,0.123-0.375,0.299-0.449    c0.076,0.145,0.291,0.144,0.398-0.002c0.178,0.074,0.301,0.248,0.301,0.451L24.108,24.328L24.108,24.328z" data-original="#000000" class="active-path" data-old_color="#51d38a" fill="#51d38a"/>
		<path d="M18.753,26.682c-0.238-0.494-0.596-0.836-1.022-1.061c-0.649-0.393-3.867-2.352-6.608-4.305    c0.241-0.324,0.95-1.215,1.796-1.705c1.051-0.611,2.749-1.168,2.749-1.168l-1.358-0.275l0.066-0.877c0,0-1.554,0.488-2.354,1.174    c-0.8,0.682-1.585,1.561-1.585,1.561s0.328-1.357,0.931-2.233c0.604-0.877,2.009-1.875,2.009-1.875l-1.012-0.25l-0.627-1.262    c0,0-1.393,2.507-1.631,3.086c-0.21,0.515-0.713,1.918-0.978,2.335c-2.004-1.58-3.636-3.08-3.759-3.215    c-0.685-0.741-1.453-1.101-2.224-1.034c-0.947,0.082-1.858,0.787-2.705,2.099L0.224,18.01l0.344,0.207    c0.285,0.172,0.566,0.342,0.841,0.508c-0.358,0.65-0.995,2.118-0.554,3.715l0.058,0.207l0.206,0.06    c3.742,1.095,10.087,6.923,10.822,7.604c0.183,0.284,0.478,0.578,0.941,0.854c1.676,0.996,3.703,0.295,4.876-0.779    c1.012-0.923,1.438-2.089,1.188-3.152C18.904,27.045,18.839,26.861,18.753,26.682z M10.285,21.666    c1.82,1.318,3.918,2.673,5.373,3.583c-1.396,0.062-2.827,0.551-3.438,0.785c-0.361-0.497-1.315-1.599-3.635-3.392    C9.186,22.146,9.814,21.843,10.285,21.666z M5.499,24.126c-1.378-0.925-2.762-1.706-3.948-2.095    c-0.255-1.219,0.231-2.363,0.516-2.898c1.615,1.002,2.967,1.899,4.095,2.691C5.506,22.667,5.418,23.494,5.499,24.126z     M1.315,17.766c0.637-0.889,1.273-1.365,1.897-1.418c0.531-0.046,1.065,0.219,1.59,0.787c0.191,0.205,1.686,1.568,3.502,3.021    c-0.346,0.085-0.821,0.303-1.616,1.092C5.268,20.246,3.505,19.088,1.315,17.766z M17.24,29.814    c-0.973,0.887-2.625,1.479-3.961,0.686c-0.67-0.398-0.938-0.842-0.798-1.316c0.093-0.313,0.332-0.613,0.634-0.869    c0.329,0.211,0.999,0.662,2.15,1.513l0.184,0.136l0.208-0.095c1.332-0.607,1.328-1.413,1.266-1.732    c-0.157-0.737-0.995-1.28-2.108-1.323c-0.948-0.037-2.696,0.871-3.074,2.153c-0.009,0.029-0.017,0.06-0.024,0.093    c-0.913-0.822-2.484-2.187-4.238-3.517c-0.03-0.7,0.049-1.644,0.557-2.344c3.071,2.362,3.681,3.469,3.688,3.481l0.161,0.329    l0.337-0.144c1.331-0.568,4.974-1.649,5.838,0.152C18.561,28.068,17.962,29.15,17.24,29.814z M13.819,27.852    c0.354-0.177,0.708-0.276,0.964-0.268c0.803,0.029,1.305,0.374,1.378,0.688c0.001,0.004,0.002,0.01,0.003,0.015    c0.049,0.252-0.183,0.534-0.63,0.778C14.736,28.479,14.183,28.095,13.819,27.852z" data-original="#000000" class="active-path" data-old_color="#51d38a" fill="#51d38a"/>
	</g>
</g></g> </svg>
