<?xml version="1.0"?>
<svg xmlns="http://www.w3.org/2000/svg" xmlns:xlink="http://www.w3.org/1999/xlink" version="1.1" id="Capa_1" x="0px" y="0px" viewBox="0 0 512 512" style="enable-background:new 0 0 512 512;" xml:space="preserve" width="512px" height="512px" class=""><g><g>
	<g>
		<g>
			<path d="M269.59,286.797c4.143,0,7.5-3.358,7.5-7.5v-97.07c0-4.143-3.357-7.5-7.5-7.5s-7.5,3.358-7.5,7.5v97.07     C262.09,283.439,265.447,286.797,269.59,286.797z" data-original="#000000" class="active-path" data-old_color="#51d38a" fill="#51d38a"/>
			<path d="M85.641,497H26.914C20.345,497,15,491.655,15,485.086v-165.02c0-6.569,5.345-11.914,11.914-11.914H41.96     c4.142,0,7.5-3.358,7.5-7.5c0-4.142-3.358-7.5-7.5-7.5H26.914C12.074,293.152,0,305.226,0,320.066v165.02     C0,499.926,12.074,512,26.914,512h58.727c4.142,0,7.5-3.358,7.5-7.5C93.141,500.358,89.783,497,85.641,497z" data-original="#000000" class="active-path" data-old_color="#51d38a" fill="#51d38a"/>
			<path d="M485.086,293.152c-4.143,0-7.5,3.358-7.5,7.5c0,4.142,3.357,7.5,7.5,7.5c6.569,0,11.914,5.345,11.914,11.914v165.02     c0,6.569-5.345,11.914-11.914,11.914H115.733c-4.142,0-7.5,3.358-7.5,7.5c0,4.142,3.358,7.5,7.5,7.5h369.353     C499.927,512,512,499.926,512,485.086v-165.02C512,305.226,499.927,293.152,485.086,293.152z" data-original="#000000" class="active-path" data-old_color="#51d38a" fill="#51d38a"/>
			<path d="M457.771,417.404l-9.779,12.795l-9.778-12.795c-2.516-3.291-7.224-3.922-10.513-1.405     c-3.292,2.515-3.921,7.222-1.405,10.513l15.737,20.592c1.419,1.856,3.622,2.946,5.959,2.946c2.337,0,4.54-1.089,5.959-2.946     l15.738-20.592c2.515-3.291,1.887-7.998-1.404-10.513C464.993,413.483,460.287,414.113,457.771,417.404z" data-original="#000000" class="active-path" data-old_color="#51d38a" fill="#51d38a"/>
			<path d="M38.828,335.224v130.713h-2.207c-4.142,0-7.5,3.358-7.5,7.5c0,4.142,3.358,7.5,7.5,7.5h300.918     c4.143,0,7.5-3.358,7.5-7.5c0-4.142-3.357-7.5-7.5-7.5h-2.207v-72.363h129.369c9.488,0,17.207-7.719,17.207-17.207v-9.707     c0-7.177-4.418-13.343-10.678-15.92V147.961c0-7.004-4.186-13.25-10.637-15.903l-73.522-30.557V77.685     c0-8.294-5.801-15.26-13.559-17.052C373.373,27.177,346.112,0,312.624,0h-86.716c-33.574,0-60.888,27.314-60.888,60.889v32.68     c0,4.142,3.358,7.5,7.5,7.5c4.142,0,7.5-3.358,7.5-7.5v-32.68C180.02,35.585,200.606,15,225.909,15h86.716     c25.068,0,45.506,20.205,45.884,45.185h-14.124c-0.376-17.193-14.479-31.064-31.76-31.064c-4.143,0-7.5,3.358-7.5,7.5     c0,4.142,3.357,7.5,7.5,7.5c9.046,0,16.442,7.201,16.757,16.171c-8.737,0.972-15.553,8.401-15.553,17.393v23.822l-73.499,30.54     c-6.476,2.663-10.661,8.91-10.661,15.913v145.013l-20.528-5.663V60.889c0-9.246,7.522-16.768,16.768-16.768h62.933     c4.143,0,7.5-3.358,7.5-7.5c0-4.142-3.357-7.5-7.5-7.5h-62.933c-17.517,0-31.768,14.251-31.768,31.768v222.283l-5.066-1.397     c-1.305-0.36-2.683-0.36-3.989,0l-5.066,1.397V121.396c0-4.142-3.358-7.5-7.5-7.5c-4.142,0-7.5,3.358-7.5,7.5v165.913     l-14.121,3.895v-16.761c0-21.98-17.187-40.021-38.828-41.391v-21.705c0-4.142-3.358-7.5-7.5-7.5c-4.142,0-7.5,3.358-7.5,7.5     v21.705c-21.64,1.37-38.828,19.411-38.828,41.391v42.322l-6.784,1.871C44.022,320.688,38.828,327.509,38.828,335.224z      M179.58,465.937h-43.242v-62.656h43.242V465.937z M237.822,465.937H194.58v-62.656h43.242V465.937z M328.829,77.685     c0-1.378,1.121-2.5,2.5-2.5h38.242c1.379,0,2.5,1.122,2.5,2.5v21.328h-43.242V77.685z M244.668,160.605h41.434     c4.143,0,7.5-3.358,7.5-7.5c0-4.142-3.357-7.5-7.5-7.5h-39.311l76.033-31.592h55.267l76.016,31.592H314.9     c-4.143,0-7.5,3.358-7.5,7.5c0,4.142,3.357,7.5,7.5,7.5h141.33v188.848H353.555c-4.143,0-7.5,3.358-7.5,7.5     c0,4.142,3.357,7.5,7.5,7.5h111.146c1.217,0,2.207,0.99,2.207,2.207v9.707c0,1.217-0.99,2.207-2.207,2.207H335.332v-43.351     c0-7.713-5.193-14.534-12.631-16.587l-78.032-21.526h-0.001V160.605z M53.826,335.223c0-0.989,0.666-1.864,1.62-2.127     l30.893-8.522c3.992-1.102,6.337-5.232,5.235-9.225c-1.102-3.992-5.229-6.335-9.225-5.235l-9.109,2.513v-38.184     c0-14.599,11.877-26.475,26.475-26.475h9.707c14.599,0,26.475,11.877,26.475,26.475v20.899l-26.524,7.317     c-3.992,1.102-6.337,5.232-5.235,9.225s5.232,6.336,9.225,5.235l73.717-20.335l131.631,36.312c0.954,0.264,1.62,1.139,1.62,2.128     v14.229h-33.27c-4.143,0-7.5,3.358-7.5,7.5c0,4.142,3.357,7.5,7.5,7.5h33.27v101.485h-67.509v-70.156c0-4.142-3.358-7.5-7.5-7.5     H128.838c-4.142,0-7.5,3.358-7.5,7.5v70.156h-67.51V364.452h206.781c4.143,0,7.5-3.358,7.5-7.5c0-4.142-3.357-7.5-7.5-7.5H53.826     V335.223z" data-original="#000000" class="active-path" data-old_color="#51d38a" fill="#51d38a"/>
			<path d="M395.853,448.292l-9.779,12.795l-9.779-12.795c-2.516-3.291-7.223-3.921-10.514-1.405     c-3.291,2.516-3.92,7.222-1.404,10.513l15.738,20.592c1.419,1.857,3.622,2.946,5.959,2.946c2.337,0,4.54-1.089,5.959-2.946     l15.738-20.592c2.516-3.291,1.887-7.998-1.404-10.513C403.076,444.371,398.369,445.001,395.853,448.292z" data-original="#000000" class="active-path" data-old_color="#51d38a" fill="#51d38a"/>
		</g>
	</g>
</g></g> </svg>
