<?xml version="1.0"?>
<svg xmlns="http://www.w3.org/2000/svg" xmlns:xlink="http://www.w3.org/1999/xlink" version="1.1" id="Capa_1" x="0px" y="0px" viewBox="0 0 508 508" style="enable-background:new 0 0 508 508;" xml:space="preserve" width="512px" height="512px" class=""><g><g>
	<g>
		<path d="M383.35,110.4C373.35,47.1,318.55,0,254.05,0s-119.3,47.1-129.3,110.3c-1.7,1.1-15.8,9.8-11.7,27.6    c4.592,20.24,25.075,22.568,26.402,22.534C141.868,219.632,189.262,303.2,254.05,303.2c63.7,0,110.6-80.8,114.4-139.8    c17.2-0.3,24.9-8.4,28.4-17.8C400.45,135.9,400.35,121.8,383.35,110.4z M221.25,21.2c10.4-3.1,21.4-4.8,32.8-4.8    c11.4,0,22.4,1.7,32.8,4.8V41c0,18.1-14.7,32.8-32.8,32.8S221.25,59,221.25,41V21.2z M254.05,286.8c-49.9,0-94.3-67.3-98-123.8    c31.8,4.4,67.4,6.4,102.5,6.4c32.7,0,64.9-1.6,93.3-4.3C347.35,221.1,303.35,286.8,254.05,286.8z M373.85,146.2    c-65.9,8.2-164,10.6-234.8-2.5c-6-1.1-9.4-5.7-9.9-9.4c-1.9-10.9,10.5-11.9,10.5-11.9s3.7-66.4,65.3-94.8V41    c0,27.1,22.1,49.2,49.2,49.2c27.1,0,49.2-22.1,49.2-49.2V27.6c63,32.2,65.3,94.8,65.3,94.8s6.9,0.3,11,6    C386.75,138.2,379.05,145.6,373.85,146.2z" data-original="#000000" class="active-path" data-old_color="#51d38a" fill="#51d38a"/>
	</g>
</g><g>
	<g>
		<path d="M339.35,274.5c0,0-36.4,45-85.3,45c-49.8,0-85.3-45-85.3-45s-92.9,35.3-95,143.3V508h360.5v-90.1    C434.35,310.9,339.35,274.5,339.35,274.5z M172.15,301.1c24.8,22.5,53.4,34.8,81.9,34.8s57.1-12.3,81.9-34.8v108.6h-163.8V301.1z     M155.65,409.8h-16.4v81.9h-49.1v-73.8c0-48,25.3-92.7,65.5-117.9V409.8z M352.35,491.6h-196.6v-65.5h196.6V491.6z M368.75,491.6    v-81.9h-16.4V299.9c40.3,25.3,65.5,69.9,65.5,117.9v73.8H368.75z" data-original="#000000" class="active-path" data-old_color="#51d38a" fill="#51d38a"/>
	</g>
</g><g>
	<g>
		<rect x="180.35" y="442.5" width="16.4" height="16.4" data-original="#000000" class="active-path" data-old_color="#51d38a" fill="#51d38a"/>
	</g>
</g><g>
	<g>
		<rect x="311.45" y="442.5" width="16.4" height="16.4" data-original="#000000" class="active-path" data-old_color="#51d38a" fill="#51d38a"/>
	</g>
</g></g> </svg>
